<svg width="32" height="22" viewBox="0 0 32 22" fill="none" xmlns="http://www.w3.org/2000/svg">
<path id="Vector" d="M20.1983 15.9766C18.7432 17.4619 17.3436 18.8927 15.8953 20.37C14.4765 18.8893 13.0929 17.4449 11.6502 15.9391C9.69725 17.9472 7.85995 19.837 6.04305 21.7053C4.13656 19.7757 2.36163 17.979 0.647949 16.2459C5.79241 11.0752 10.9913 5.85101 16.1687 0.648438C21.3528 5.83055 26.563 11.0399 31.7359 16.2118C29.894 18.0756 28.0476 19.9416 26.1332 21.8792C24.1938 19.9507 22.2442 18.0131 20.1971 15.9766H20.1983ZM11.657 13.5833C13.0237 12.1775 14.4278 10.7331 15.8976 9.22166C17.3845 10.7286 18.7999 12.1627 20.1801 13.5628C21.3142 12.44 22.3985 11.3672 23.4113 10.3649C20.9831 7.93522 18.5311 5.48167 16.1755 3.12472C13.6985 5.60213 11.166 8.13523 8.69694 10.6058C9.62467 11.5388 10.6057 12.5264 11.657 13.5844V13.5833ZM29.3882 16.3153C27.8174 14.7061 26.292 13.1435 24.7949 11.6116C23.7186 12.7071 22.6435 13.8026 21.6205 14.8447C23.1232 16.3596 24.6736 17.921 26.1627 19.4222C27.239 18.3858 28.3357 17.3289 29.3882 16.3164V16.3153ZM2.93778 16.2312C3.92108 17.2108 4.91799 18.2051 5.85138 19.1359C7.29741 17.6983 8.76272 16.2402 10.1668 14.8447C9.20844 13.8844 8.2172 12.8889 7.25885 11.9275C5.83891 13.3412 4.38381 14.7913 2.93891 16.2312H2.93778ZM15.9123 11.7957C14.8837 12.8037 13.8505 13.8162 12.8796 14.7674C13.9004 15.8152 14.9177 16.8607 15.9033 17.8733C16.9127 16.8653 17.9368 15.8436 18.9326 14.8493C17.9402 13.8458 16.924 12.8173 15.9135 11.7957H15.9123Z" fill="url(#paint0_linear_130_233)"/>
<defs>
<linearGradient id="paint0_linear_130_233" x1="12.7832" y1="2.46672" x2="23.2492" y2="20.9156" gradientUnits="userSpaceOnUse">
<stop offset="0.246487" stop-color="#2EFD89"/>
<stop offset="0.5" stop-color="#33E0CD"/>
<stop offset="1" stop-color="#37B7F9"/>
</linearGradient>
</defs>
</svg>
