<svg width="8" height="13" viewBox="0 0 8 13" fill="none" xmlns="http://www.w3.org/2000/svg">
<g id="Group 47315">
<path id="Vector" d="M5.51834 4.9578V8.5132H7.16566V4.9578H5.51834ZM5.24379 4.36523H7.44021C7.51303 4.36523 7.58286 4.39645 7.63435 4.45201C7.68584 4.50758 7.71476 4.58294 7.71476 4.66152V8.80949C7.71476 8.88807 7.68584 8.96343 7.63435 9.01899C7.58286 9.07456 7.51303 9.10577 7.44021 9.10577H5.24379C5.17097 9.10577 5.10114 9.07456 5.04965 9.01899C4.99816 8.96343 4.96924 8.88807 4.96924 8.80949V4.66152C4.96924 4.58294 4.99816 4.50758 5.04965 4.45201C5.10114 4.39645 5.17097 4.36523 5.24379 4.36523Z" fill="white"/>
<path id="Vector_2" d="M6.06836 2.58594H6.61746V4.65992H6.06836V2.58594ZM6.06836 8.80789H6.61746V10.8819H6.06836V8.80789Z" fill="white"/>
<path id="Vector_3" d="M1.12625 3.1785V10.2893H2.77357V3.1785H1.12625ZM0.851701 2.58594H3.04812C3.12094 2.58594 3.19077 2.61715 3.24226 2.67272C3.29375 2.72828 3.32267 2.80364 3.32267 2.88222V10.5856C3.32267 10.6642 3.29375 10.7395 3.24226 10.7951C3.19077 10.8507 3.12094 10.8819 3.04812 10.8819H0.851701C0.778885 10.8819 0.709051 10.8507 0.657563 10.7951C0.606074 10.7395 0.577148 10.6642 0.577148 10.5856V2.88222C0.577148 2.80364 0.606074 2.72828 0.657563 2.67272C0.709051 2.61715 0.778885 2.58594 0.851701 2.58594Z" fill="white"/>
<path id="Vector_4" d="M1.67627 0.808594H2.22537V2.88258H1.67627V0.808594ZM1.67627 10.5859H2.22537V12.6599H1.67627V10.5859Z" fill="white"/>
</g>
</svg>
