<svg width="28" height="27" viewBox="0 0 28 27" fill="none" xmlns="http://www.w3.org/2000/svg">
<g id="crypto-com-wallet 1" clip-path="url(#clip0_130_275)">
<g id="Clip path group">
<mask id="mask0_130_275" style="mask-type:luminance" maskUnits="userSpaceOnUse" x="2" y="0" width="24" height="27">
<g id="clip0_7326_4141">
<path id="Vector" d="M25.5283 0.208984H2.30713V26.7474H25.5283V0.208984Z" fill="white"/>
</g>
</mask>
<g mask="url(#mask0_130_275)">
<g id="Group">
<path id="Vector_2" d="M13.9106 0.208984L2.30713 6.8436V20.1128L13.9106 26.7474L25.514 20.1128V6.8436L13.9106 0.208984ZM13.9106 0.208984L2.30713 6.8436V20.1128L13.9106 26.7474L25.514 20.1128V6.8436L13.9106 0.208984Z" fill="white"/>
<path id="Vector_3" d="M18.4915 21.5642H16.8405L14.8639 19.7673V18.8458L16.9102 16.9107V13.8468L19.5844 12.119L22.6306 14.3997L18.4915 21.5642ZM11.655 16.7264L11.9573 13.8468L10.9574 11.2667H16.8638L15.8871 13.8468L16.1662 16.7264H13.8873H11.655ZM13.0037 19.7673L11.0272 21.5872H9.35291L5.19055 14.3997L8.26 12.1421L10.9574 13.8468V16.9107L13.0037 18.8458V19.7673ZM9.32966 5.94516H18.4683L19.5611 10.5525H8.26L9.32966 5.94516ZM13.9106 0.208984L2.30713 6.8436V20.1128L13.9106 26.7474L25.514 20.1128V6.8436L13.9106 0.208984Z" fill="#03316C"/>
</g>
</g>
</g>
</g>
<defs>
<clipPath id="clip0_130_275">
<rect width="26.5385" height="26.5385" fill="white" transform="translate(0.647949 0.208984)"/>
</clipPath>
</defs>
</svg>
