<svg width="66" height="66" viewBox="0 0 66 66" fill="none" xmlns="http://www.w3.org/2000/svg">
<g filter="url(#filter0_dddddd_2181_680)">
<circle cx="32.9687" cy="33.2753" r="18.9687" fill="black"/>
</g>
<path d="M36.5444 36.427C35.2456 37.7501 33.9965 39.0245 32.7038 40.3405C31.4374 39.0215 30.2024 37.7349 28.9148 36.3936C27.1717 38.1823 25.5318 39.8657 23.9101 41.5299C22.2085 39.8111 20.6243 38.2107 19.0947 36.6669C23.6864 32.0611 28.3267 27.4076 32.9477 22.7734C37.5749 27.3894 42.2253 32.0297 46.8422 36.6366C45.1983 38.2967 43.5503 39.9589 41.8416 41.6848C40.1106 39.967 38.3705 38.241 36.5433 36.427H36.5444ZM28.9209 34.2952C30.1407 33.043 31.3939 31.7564 32.7058 30.4101C34.0329 31.7523 35.2962 33.0298 36.5282 34.277C37.5404 33.2768 38.5082 32.3212 39.4121 31.4284C37.2449 29.2642 35.0563 27.0787 32.9538 24.9792C30.743 27.186 28.4826 29.4423 26.2789 31.643C27.1069 32.4741 27.9825 33.3538 28.9209 34.2962V34.2952ZM44.7468 36.7287C43.3448 35.2953 41.9833 33.9034 40.6471 32.5389C39.6865 33.5147 38.7268 34.4905 37.8137 35.4188C39.155 36.7682 40.5388 38.159 41.8679 39.4963C42.8286 38.5731 43.8074 37.6316 44.7468 36.7297V36.7287ZM21.1385 36.6538C22.0162 37.5264 22.9059 38.4121 23.7391 39.2412C25.0297 37.9606 26.3376 36.6619 27.5908 35.4188C26.7354 34.5634 25.8507 33.6767 24.9953 32.8203C23.7279 34.0796 22.4292 35.3712 21.1395 36.6538H21.1385ZM32.719 32.7029C31.8008 33.6007 30.8786 34.5027 30.0121 35.35C30.9232 36.2833 31.8312 37.2146 32.7109 38.1165C33.6118 37.2186 34.5259 36.3086 35.4147 35.4228C34.5289 34.529 33.6219 33.6129 32.72 32.7029H32.719Z" fill="url(#paint0_linear_2181_680)"/>
<defs>
<filter id="filter0_dddddd_2181_680" x="0.615706" y="0.922347" width="64.7061" height="64.7061" filterUnits="userSpaceOnUse" color-interpolation-filters="sRGB">
<feFlood flood-opacity="0" result="BackgroundImageFix"/>
<feColorMatrix in="SourceAlpha" type="matrix" values="0 0 0 0 0 0 0 0 0 0 0 0 0 0 0 0 0 0 127 0" result="hardAlpha"/>
<feOffset/>
<feGaussianBlur stdDeviation="0.159337"/>
<feColorMatrix type="matrix" values="0 0 0 0 0.164706 0 0 0 0 0.898039 0 0 0 0 0.996078 0 0 0 1 0"/>
<feBlend mode="normal" in2="BackgroundImageFix" result="effect1_dropShadow_2181_680"/>
<feColorMatrix in="SourceAlpha" type="matrix" values="0 0 0 0 0 0 0 0 0 0 0 0 0 0 0 0 0 0 127 0" result="hardAlpha"/>
<feOffset/>
<feGaussianBlur stdDeviation="0.318674"/>
<feColorMatrix type="matrix" values="0 0 0 0 0.164706 0 0 0 0 0.898039 0 0 0 0 0.996078 0 0 0 1 0"/>
<feBlend mode="normal" in2="effect1_dropShadow_2181_680" result="effect2_dropShadow_2181_680"/>
<feColorMatrix in="SourceAlpha" type="matrix" values="0 0 0 0 0 0 0 0 0 0 0 0 0 0 0 0 0 0 127 0" result="hardAlpha"/>
<feOffset/>
<feGaussianBlur stdDeviation="1.11536"/>
<feColorMatrix type="matrix" values="0 0 0 0 0.164706 0 0 0 0 0.898039 0 0 0 0 0.996078 0 0 0 1 0"/>
<feBlend mode="normal" in2="effect2_dropShadow_2181_680" result="effect3_dropShadow_2181_680"/>
<feColorMatrix in="SourceAlpha" type="matrix" values="0 0 0 0 0 0 0 0 0 0 0 0 0 0 0 0 0 0 127 0" result="hardAlpha"/>
<feOffset/>
<feGaussianBlur stdDeviation="2.23072"/>
<feColorMatrix type="matrix" values="0 0 0 0 0.164706 0 0 0 0 0.898039 0 0 0 0 0.996078 0 0 0 1 0"/>
<feBlend mode="normal" in2="effect3_dropShadow_2181_680" result="effect4_dropShadow_2181_680"/>
<feColorMatrix in="SourceAlpha" type="matrix" values="0 0 0 0 0 0 0 0 0 0 0 0 0 0 0 0 0 0 127 0" result="hardAlpha"/>
<feOffset/>
<feGaussianBlur stdDeviation="3.82408"/>
<feColorMatrix type="matrix" values="0 0 0 0 0.164706 0 0 0 0 0.898039 0 0 0 0 0.996078 0 0 0 1 0"/>
<feBlend mode="normal" in2="effect4_dropShadow_2181_680" result="effect5_dropShadow_2181_680"/>
<feColorMatrix in="SourceAlpha" type="matrix" values="0 0 0 0 0 0 0 0 0 0 0 0 0 0 0 0 0 0 127 0" result="hardAlpha"/>
<feOffset/>
<feGaussianBlur stdDeviation="6.69215"/>
<feColorMatrix type="matrix" values="0 0 0 0 0.164706 0 0 0 0 0.898039 0 0 0 0 0.996078 0 0 0 1 0"/>
<feBlend mode="normal" in2="effect5_dropShadow_2181_680" result="effect6_dropShadow_2181_680"/>
<feBlend mode="normal" in="SourceGraphic" in2="effect6_dropShadow_2181_680" result="shape"/>
</filter>
<linearGradient id="paint0_linear_2181_680" x1="29.9261" y1="24.3931" x2="39.239" y2="40.8426" gradientUnits="userSpaceOnUse">
<stop offset="0.246487" stop-color="#2EFD89"/>
<stop offset="0.5" stop-color="#33E0CD"/>
<stop offset="1" stop-color="#37B7F9"/>
</linearGradient>
</defs>
</svg>
