<svg width="23" height="21" viewBox="0 0 23 21" fill="none" xmlns="http://www.w3.org/2000/svg">
<g id="logos:metamask-icon" clip-path="url(#clip0_2067_1720)">
<path id="Vector" d="M21.7642 0.705078L12.541 7.52957L14.2561 3.50771L21.7642 0.705078Z" fill="#E17726"/>
<path id="Vector_2" d="M1.28776 0.712891L8.77573 3.50796L10.4043 7.58255L1.28776 0.712891ZM18.0527 15.2186L22.1292 15.2962L20.7045 20.1361L15.7303 18.7665L18.0527 15.2186ZM4.9778 15.2186L7.29159 18.7665L2.32572 20.1361L0.909668 15.2962L4.9778 15.2186Z" fill="#E27625"/>
<path id="Vector_3" d="M10.1827 6.54636L10.3493 11.927L5.36426 11.7002L6.78224 9.561L6.80021 9.54043L10.1827 6.54636ZM12.7959 6.48633L16.23 9.54059L16.2478 9.56108L17.6658 11.7003L12.6819 11.927L12.7959 6.48633ZM7.43741 15.2359L10.1593 17.3568L6.99744 18.8833L7.43741 15.2359ZM15.5933 15.2356L16.0241 18.8834L12.871 17.3566L15.5933 15.2356Z" fill="#E27625"/>
<path id="Vector_4" d="M12.9408 17.1562L16.1404 18.7055L13.1641 20.12L13.195 19.1852L12.9408 17.1562ZM10.0888 17.1569L9.84451 19.1699L9.86458 20.1189L6.88135 18.7055L10.0888 17.1569Z" fill="#D5BFB2"/>
<path id="Vector_5" d="M9.16481 12.6289L10.0009 14.3861L7.1543 13.5522L9.16481 12.6289ZM13.8655 12.6291L15.8855 13.5522L13.0296 14.3858L13.8655 12.6291Z" fill="#233447"/>
<path id="Vector_6" d="M7.65491 15.2179L7.19478 18.9997L4.72852 15.3006L7.65491 15.2179ZM15.3754 15.218L18.3018 15.3006L15.8263 18.9998L15.3754 15.218ZM17.7378 11.4863L15.608 13.6569L13.966 12.9065L13.1798 14.5592L12.6644 11.7171L17.7378 11.4863ZM5.29124 11.4863L10.3656 11.7171L9.85014 14.5592L9.06382 12.9067L7.43047 13.657L5.29124 11.4863Z" fill="#CC6228"/>
<path id="Vector_7" d="M5.14795 11.0395L7.55754 13.4846L7.641 15.8985L5.14795 11.0395ZM17.885 11.0352L15.3874 15.9028L15.4815 13.4846L17.885 11.0352ZM10.248 11.1885L10.345 11.7989L10.5846 13.3196L10.4305 17.99L9.70214 14.2381L9.70189 14.1993L10.248 11.1885ZM12.7813 11.18L13.3288 14.1993L13.3285 14.2381L12.5983 17.9994L12.5694 17.0586L12.4555 13.2919L12.7813 11.18Z" fill="#E27525"/>
<path id="Vector_8" d="M15.6957 13.3887L15.6142 15.4859L13.0723 17.4664L12.5584 17.1033L13.1344 14.1365L15.6957 13.3887ZM7.34375 13.3887L9.89616 14.1365L10.4722 17.1033L9.9583 17.4664L7.41629 15.4858L7.34375 13.3887Z" fill="#F5841F"/>
<path id="Vector_9" d="M6.39453 18.2422L9.64662 19.7831L9.63285 19.1251L9.90497 18.8862H13.1236L13.4056 19.1242L13.3848 19.7817L16.6163 18.2461L15.0438 19.5455L13.1424 20.8514H9.87886L7.97876 19.5401L6.39453 18.2422Z" fill="#C0AC9D"/>
<path id="Vector_10" d="M12.7075 16.9512L13.1673 17.276L13.4367 19.4258L13.0468 19.0966H9.9841L9.60156 19.4325L9.86219 17.2762L10.3221 16.9512H12.7075Z" fill="#161616"/>
<path id="Vector_11" d="M21.1552 0.894531L22.2623 4.21589L21.5709 7.57419L22.0632 7.95395L21.397 8.46227L21.8977 8.84901L21.2347 9.45279L21.6417 9.74759L20.5614 11.0092L16.1307 9.71912L16.0923 9.69855L12.8994 7.00516L21.1552 0.894531ZM1.87472 0.894531L10.1305 7.00516L6.93757 9.69855L6.8992 9.71912L2.46843 11.0092L1.38815 9.74759L1.79487 9.45304L1.13223 8.84901L1.63199 8.46269L0.955741 7.95295L1.46666 7.57293L0.767578 4.21605L1.87472 0.894531Z" fill="#763E1A"/>
<path id="Vector_12" d="M15.9142 9.43751L20.6089 10.8044L22.1341 15.5052H18.1102L15.3377 15.5401L17.354 11.6099L15.9142 9.43751ZM7.11617 9.43751L5.67611 11.6099L7.69267 15.5401L4.92144 15.5052H0.904785L2.42142 10.8044L7.11617 9.43751ZM14.4862 3.48633L13.1731 7.03287L12.8944 11.8238L12.7878 13.3255L12.7793 17.1617H10.251L10.2428 13.3328L10.1358 11.8226L9.85709 7.03287L8.54415 3.48633H14.4862Z" fill="#F5841F"/>
</g>
<defs>
<clipPath id="clip0_2067_1720">
<rect width="21.4947" height="20.1513" fill="white" transform="translate(0.767578 0.705078)"/>
</clipPath>
</defs>
</svg>
