<svg width="23" height="23" viewBox="0 0 23 23" fill="none" xmlns="http://www.w3.org/2000/svg">
<path d="M12.2859 2.56846C12.2859 2.3545 12.2006 2.1493 12.0487 1.99801C11.8968 1.84671 11.6908 1.76172 11.476 1.76172C11.2612 1.76172 11.0552 1.84671 10.9033 1.99801C10.7514 2.1493 10.6661 2.3545 10.6661 2.56846V9.29126H3.91706C3.70227 9.29126 3.49627 9.37626 3.34439 9.52755C3.1925 9.67884 3.10718 9.88404 3.10718 10.098C3.10718 10.312 3.1925 10.5172 3.34439 10.6684C3.49627 10.8197 3.70227 10.9047 3.91706 10.9047H10.6661V17.6275C10.6661 17.8415 10.7514 18.0467 10.9033 18.198C11.0552 18.3493 11.2612 18.4343 11.476 18.4343C11.6908 18.4343 11.8968 18.3493 12.0487 18.198C12.2006 18.0467 12.2859 17.8415 12.2859 17.6275V10.9047H19.0349C19.2497 10.9047 19.4557 10.8197 19.6076 10.6684C19.7595 10.5172 19.8448 10.312 19.8448 10.098C19.8448 9.88404 19.7595 9.67884 19.6076 9.52755C19.4557 9.37626 19.2497 9.29126 19.0349 9.29126H12.2859V2.56846Z" fill="black"/>
</svg>
