<svg width="23" height="23" viewBox="0 0 23 23" fill="none" xmlns="http://www.w3.org/2000/svg">
<path d="M12.4194 2.56846C12.4194 2.3545 12.3341 2.1493 12.1822 1.99801C12.0303 1.84671 11.8243 1.76172 11.6095 1.76172C11.3947 1.76172 11.1887 1.84671 11.0369 1.99801C10.885 2.1493 10.7997 2.3545 10.7997 2.56846V9.29126H4.05061C3.83581 9.29126 3.62982 9.37626 3.47793 9.52755C3.32605 9.67884 3.24072 9.88404 3.24072 10.098C3.24072 10.312 3.32605 10.5172 3.47793 10.6684C3.62982 10.8197 3.83581 10.9047 4.05061 10.9047H10.7997V17.6275C10.7997 17.8415 10.885 18.0467 11.0369 18.198C11.1887 18.3493 11.3947 18.4343 11.6095 18.4343C11.8243 18.4343 12.0303 18.3493 12.1822 18.198C12.3341 18.0467 12.4194 17.8415 12.4194 17.6275V10.9047H19.1685C19.3833 10.9047 19.5893 10.8197 19.7412 10.6684C19.893 10.5172 19.9784 10.312 19.9784 10.098C19.9784 9.88404 19.893 9.67884 19.7412 9.52755C19.5893 9.37626 19.3833 9.29126 19.1685 9.29126H12.4194V2.56846Z" fill="white"/>
</svg>
