<svg width="24" height="24" viewBox="0 0 24 24" fill="none" xmlns="http://www.w3.org/2000/svg">
<path d="M19.6055 12.6717C19.4243 14.0536 18.8703 15.3602 18.0029 16.4513C17.1356 17.5423 15.9876 18.3767 14.6821 18.8649C13.3765 19.3531 11.9628 19.4767 10.5923 19.2224C9.2219 18.9682 7.94653 18.3457 6.903 17.4217C5.85947 16.4977 5.08714 15.3071 4.66885 13.9775C4.25056 12.648 4.20208 11.2296 4.52862 9.8746C4.85515 8.51958 5.54438 7.279 6.52239 6.28592C7.5004 5.29284 8.73029 4.58472 10.0802 4.2375C13.8222 3.27777 17.6957 5.20396 19.1257 8.79337" stroke="white" stroke-width="1.4396" stroke-linecap="round" stroke-linejoin="round"/>
<path d="M19.6698 3.99414V8.79282H14.8711" stroke="white" stroke-width="1.4396" stroke-linecap="round" stroke-linejoin="round"/>
</svg>
