<svg width="24" height="24" viewBox="0 0 24 24" fill="none" xmlns="http://www.w3.org/2000/svg">
<path d="M19.4722 12.6717C19.291 14.0536 18.737 15.3602 17.8696 16.4513C17.0023 17.5423 15.8543 18.3767 14.5488 18.8649C13.2432 19.3531 11.8295 19.4767 10.459 19.2224C9.0886 18.9682 7.81323 18.3457 6.7697 17.4217C5.72617 16.4977 4.95384 15.3071 4.53555 13.9775C4.11726 12.648 4.06878 11.2296 4.39532 9.8746C4.72185 8.51958 5.41108 7.279 6.38909 6.28592C7.3671 5.29284 8.59699 4.58472 9.94686 4.2375C13.6889 3.27777 17.5624 5.20396 18.9924 8.79337" stroke="black" stroke-width="1.4396" stroke-linecap="round" stroke-linejoin="round"/>
<path d="M19.5362 3.99414V8.79282H14.7375" stroke="black" stroke-width="1.4396" stroke-linecap="round" stroke-linejoin="round"/>
</svg>
