<svg width="23" height="24" viewBox="0 0 23 24" fill="none" xmlns="http://www.w3.org/2000/svg">
<path d="M13.3452 9.00791H4.16118C3.97624 9.00791 3.79887 8.93444 3.6681 8.80367C3.53733 8.6729 3.46387 8.49554 3.46387 8.3106C3.46387 8.12567 3.53733 7.9483 3.6681 7.81753C3.79887 7.68676 3.97624 7.61329 4.16118 7.61329H13.3452C13.4896 7.20542 13.7568 6.85232 14.1101 6.60258C14.4634 6.35285 14.8854 6.21875 15.3181 6.21875C15.7508 6.21875 16.1728 6.35285 16.5261 6.60258C16.8794 6.85232 17.1467 7.20542 17.291 7.61329H19.0371C19.222 7.61329 19.3994 7.68676 19.5302 7.81753C19.6609 7.9483 19.7344 8.12567 19.7344 8.3106C19.7344 8.49554 19.6609 8.6729 19.5302 8.80367C19.3994 8.93444 19.222 9.00791 19.0371 9.00791H17.291C17.1467 9.41578 16.8794 9.76888 16.5261 10.0186C16.1728 10.2684 15.7508 10.4025 15.3181 10.4025C14.8854 10.4025 14.4634 10.2684 14.1101 10.0186C13.7568 9.76888 13.4896 9.41578 13.3452 9.00791ZM19.0371 16.4459C19.222 16.4459 19.3994 16.3724 19.5302 16.2416C19.6609 16.1109 19.7344 15.9335 19.7344 15.7486C19.7344 15.5636 19.6609 15.3863 19.5302 15.2555C19.3994 15.1247 19.222 15.0512 19.0371 15.0512H9.85307C9.70871 14.6434 9.44148 14.2903 9.08816 14.0405C8.73485 13.7908 8.31282 13.6567 7.88015 13.6567C7.44749 13.6567 7.02546 13.7908 6.67214 14.0405C6.31883 14.2903 6.0516 14.6434 5.90724 15.0512H4.16118C3.97624 15.0512 3.79887 15.1247 3.6681 15.2555C3.53733 15.3863 3.46387 15.5636 3.46387 15.7486C3.46387 15.9335 3.53733 16.1109 3.6681 16.2416C3.79887 16.3724 3.97624 16.4459 4.16118 16.4459H5.90724C6.05117 16.8542 6.31824 17.2077 6.67161 17.4578C7.02497 17.708 7.44723 17.8423 7.88015 17.8423C8.31308 17.8423 8.73534 17.708 9.0887 17.4578C9.44207 17.2077 9.70913 16.8542 9.85307 16.4459H19.0371Z" fill="black"/>
</svg>
