<svg width="17" height="12" viewBox="0 0 17 12" fill="none" xmlns="http://www.w3.org/2000/svg">
<path d="M10.4785 3.00791H1.29448C1.10954 3.00791 0.932175 2.93444 0.801405 2.80367C0.670634 2.6729 0.597168 2.49554 0.597168 2.3106C0.597168 2.12567 0.670634 1.9483 0.801405 1.81753C0.932175 1.68676 1.10954 1.61329 1.29448 1.61329H10.4785C10.6229 1.20542 10.8901 0.852322 11.2434 0.602584C11.5967 0.352847 12.0187 0.21875 12.4514 0.21875C12.8841 0.21875 13.3061 0.352847 13.6594 0.602584C14.0127 0.852322 14.28 1.20542 14.4243 1.61329H16.1704C16.3553 1.61329 16.5327 1.68676 16.6635 1.81753C16.7942 1.9483 16.8677 2.12567 16.8677 2.3106C16.8677 2.49554 16.7942 2.6729 16.6635 2.80367C16.5327 2.93444 16.3553 3.00791 16.1704 3.00791H14.4243C14.28 3.41578 14.0127 3.76888 13.6594 4.01862C13.3061 4.26836 12.8841 4.40246 12.4514 4.40246C12.0187 4.40246 11.5967 4.26836 11.2434 4.01862C10.8901 3.76888 10.6229 3.41578 10.4785 3.00791ZM16.1704 10.4459C16.3553 10.4459 16.5327 10.3724 16.6635 10.2416C16.7942 10.1109 16.8677 9.9335 16.8677 9.74856C16.8677 9.56362 16.7942 9.38626 16.6635 9.25549C16.5327 9.12472 16.3553 9.05125 16.1704 9.05125H6.98637C6.84201 8.64338 6.57478 8.29028 6.22147 8.04054C5.86815 7.7908 5.44612 7.6567 5.01345 7.6567C4.58079 7.6567 4.15876 7.7908 3.80544 8.04054C3.45213 8.29028 3.1849 8.64338 3.04054 9.05125H1.29448C1.10954 9.05125 0.932175 9.12472 0.801405 9.25549C0.670634 9.38626 0.597168 9.56362 0.597168 9.74856C0.597168 9.9335 0.670634 10.1109 0.801405 10.2416C0.932175 10.3724 1.10954 10.4459 1.29448 10.4459H3.04054C3.18447 10.8542 3.45154 11.2077 3.80491 11.4578C4.15827 11.708 4.58053 11.8423 5.01345 11.8423C5.44638 11.8423 5.86864 11.708 6.222 11.4578C6.57537 11.2077 6.84243 10.8542 6.98637 10.4459H16.1704Z" fill="white"/>
</svg>
