<svg width="47" height="47" viewBox="0 0 47 47" fill="none" xmlns="http://www.w3.org/2000/svg">
<g filter="url(#filter0_d_2181_676)">
<circle cx="23.1545" cy="20.1545" r="20.1545" fill="black"/>
<circle cx="23.1545" cy="20.1545" r="19.6146" stroke="white" stroke-width="1.0797"/>
</g>
<path fill-rule="evenodd" clip-rule="evenodd" d="M27.671 27.1187C27.5225 27.2687 27.3212 27.3529 27.1112 27.3529C26.9012 27.3529 26.6999 27.2687 26.5514 27.1187L23.3842 23.9196C23.2735 23.8078 23.1981 23.6653 23.1676 23.5102C23.137 23.355 23.1527 23.1943 23.2126 23.0481C23.2725 22.902 23.374 22.7771 23.5042 22.6892C23.6344 22.6013 23.7874 22.5544 23.944 22.5544H26.3194V13.7568C26.3194 13.5447 26.4028 13.3413 26.5513 13.1913C26.6998 13.0413 26.9012 12.957 27.1112 12.957C27.3212 12.957 27.5226 13.0413 27.6711 13.1913C27.8196 13.3413 27.903 13.5447 27.903 13.7568V22.5544H30.2784C30.435 22.5544 30.588 22.6013 30.7182 22.6892C30.8484 22.7771 30.9498 22.902 31.0098 23.0481C31.0697 23.1943 31.0854 23.355 31.0548 23.5102C31.0243 23.6653 30.9489 23.8078 30.8382 23.9196L27.671 27.1187ZM19.753 13.1914C19.6045 13.0414 19.4032 12.9572 19.1932 12.9572C18.9832 12.9572 18.7819 13.0414 18.6334 13.1914L15.4662 16.3905C15.3555 16.5023 15.2801 16.6448 15.2496 16.7999C15.219 16.9551 15.2347 17.1159 15.2946 17.262C15.3546 17.4081 15.456 17.533 15.5862 17.6209C15.7164 17.7088 15.8694 17.7557 16.026 17.7557H18.4014V26.5533C18.4014 26.7654 18.4848 26.9688 18.6333 27.1188C18.7818 27.2688 18.9832 27.3531 19.1932 27.3531C19.4032 27.3531 19.6046 27.2688 19.7531 27.1188C19.9016 26.9688 19.985 26.7654 19.985 26.5533V17.7557H22.3604C22.517 17.7557 22.67 17.7088 22.8002 17.6209C22.9304 17.533 23.0319 17.4081 23.0918 17.262C23.1517 17.1159 23.1674 16.9551 23.1368 16.7999C23.1063 16.6448 23.0309 16.5023 22.9202 16.3905L19.753 13.1914Z" fill="white"/>
<defs>
<filter id="filter0_d_2181_676" x="0.120791" y="0" width="46.067" height="46.067" filterUnits="userSpaceOnUse" color-interpolation-filters="sRGB">
<feFlood flood-opacity="0" result="BackgroundImageFix"/>
<feColorMatrix in="SourceAlpha" type="matrix" values="0 0 0 0 0 0 0 0 0 0 0 0 0 0 0 0 0 0 127 0" result="hardAlpha"/>
<feOffset dy="2.87921"/>
<feGaussianBlur stdDeviation="1.4396"/>
<feComposite in2="hardAlpha" operator="out"/>
<feColorMatrix type="matrix" values="0 0 0 0 0 0 0 0 0 0 0 0 0 0 0 0 0 0 1 0"/>
<feBlend mode="normal" in2="BackgroundImageFix" result="effect1_dropShadow_2181_676"/>
<feBlend mode="normal" in="SourceGraphic" in2="effect1_dropShadow_2181_676" result="shape"/>
</filter>
</defs>
</svg>
