<svg width="9" height="9" viewBox="0 0 9 9" fill="none" xmlns="http://www.w3.org/2000/svg">
<path id="Vector" d="M0.755187 4.84831H1.41751C1.46334 4.84831 1.50083 4.81081 1.50083 4.76498V2.1056H7.00564V2.86185C7.00564 2.88164 7.01189 2.90039 7.02439 2.91602C7.0314 2.92501 7.04013 2.93253 7.05007 2.93814C7.06 2.94375 7.07095 2.94733 7.08227 2.94869C7.0936 2.95004 7.10508 2.94914 7.11606 2.94604C7.12704 2.94294 7.13729 2.93769 7.14623 2.9306L8.63855 1.75873C8.68333 1.70664 8.67604 1.65143 8.63855 1.62123L7.14623 0.450393C7.13087 0.438106 7.11175 0.431485 7.09208 0.431643C7.04417 0.431643 7.0046 0.471227 7.0046 0.519143V1.27539H1.41856C1.0072 1.27539 0.671875 1.61081 0.671875 2.02331V4.76498C0.671875 4.81081 0.709365 4.84831 0.755187 4.84831ZM8.58648 4.01498H7.92415C7.87833 4.01498 7.84084 4.05248 7.84084 4.09831V6.75768H2.33602V6.00143C2.33602 5.98164 2.32978 5.96289 2.31728 5.94727C2.31026 5.93827 2.30154 5.93075 2.2916 5.92514C2.28167 5.91954 2.27072 5.91595 2.25939 5.91459C2.24807 5.91324 2.23659 5.91414 2.22561 5.91724C2.21463 5.92035 2.20438 5.9256 2.19544 5.93268L0.703117 7.10456C0.658337 7.15664 0.665627 7.21185 0.703117 7.24206L2.19544 8.41289C2.21106 8.42539 2.2298 8.43164 2.24959 8.43164C2.29749 8.43164 2.33707 8.39206 2.33707 8.34414V7.58789H7.92519C8.33655 7.58789 8.67188 7.25247 8.67188 6.83997V4.09831C8.66979 4.05248 8.6323 4.01498 8.58648 4.01498Z" fill="#999999"/>
</svg>
