<svg width="32" height="19" viewBox="0 0 32 19" fill="none" xmlns="http://www.w3.org/2000/svg">
<path id="Vector" fill-rule="evenodd" clip-rule="evenodd" d="M16.1919 4.35244C13.1862 4.35244 10.8491 5.97013 9.49777 7.16455C9.23079 7.40055 8.82151 7.4012 8.56502 7.15434L6.71177 5.37053C6.44863 5.11725 6.4469 4.70144 6.71878 4.45719C8.35653 2.98589 11.6594 0.548828 16.1919 0.548828C20.7245 0.548828 24.0272 2.98589 25.6651 4.45719C25.9369 4.70144 25.9352 5.11725 25.6721 5.37053L23.8187 7.15434C23.5622 7.4012 23.153 7.40055 22.886 7.16455C21.5347 5.97013 19.1977 4.35244 16.1919 4.35244ZM0.86616 11.266C0.592065 11.0242 0.57365 10.6091 0.825298 10.3449L2.59559 8.48596C2.84092 8.22837 3.25157 8.21092 3.51877 8.44667L9.1808 13.4424C9.42987 13.6621 9.80752 13.6638 10.0586 13.4463L15.7553 8.51142C16.0046 8.29545 16.3792 8.29545 16.6285 8.51142L22.3252 13.4463C22.5762 13.6638 22.9539 13.6621 23.203 13.4424L28.8651 8.44667C29.1323 8.21092 29.5429 8.22837 29.7882 8.48596L31.5585 10.3449C31.8102 10.6091 31.7917 11.0242 31.5176 11.266L23.2274 18.5807C22.9783 18.8004 22.6006 18.8021 22.3495 18.5846L16.6285 13.6287C16.3792 13.4127 16.0046 13.4127 15.7553 13.6287L10.0343 18.5846C9.78314 18.8021 9.4055 18.8004 9.15642 18.5807L0.86616 11.266Z" fill="#278FFC"/>
</svg>
