<svg width="31" height="32" viewBox="0 0 92 65" fill="none" xmlns="http://www.w3.org/2000/svg">
<g id="Group 47319">
<path id="Subtract" fill-rule="evenodd" clip-rule="evenodd" d="M55.7725 12.1344C55.165 13.8004 54.1065 15.2495 52.7446 16.3339C56.2259 19.8103 59.7491 23.3285 63.2715 26.846L67.3199 30.8888C66.4665 31.7317 65.5957 32.5917 64.7091 33.4673C62.5159 35.6334 60.2258 37.895 57.8617 40.2308C54.5144 36.8423 51.0965 33.3854 47.5476 29.796C46.8129 29.0529 46.0725 28.3041 45.326 27.549C41.8164 31.1507 38.4349 34.622 35.1365 38.0081C34.3913 38.7731 33.6504 39.5337 32.9131 40.2905V40.2939C32.1254 39.5028 31.3512 38.7252 30.5897 37.9603C28.3759 35.7367 26.2689 33.6205 24.2484 31.5926C29.4977 26.3505 34.8451 21.0121 40.1569 15.7097C38.888 14.4768 37.9608 12.8941 37.5309 11.1172C25.2241 23.4591 12.9034 35.8154 0.6875 48.0689C5.16955 52.5925 9.79473 57.2645 14.7099 62.2294L16.48 64.0174C18.7816 61.6554 21.0944 59.2816 23.4411 56.8731C26.5168 53.7164 29.6505 50.5 32.8932 47.1726C34.4412 48.785 35.9659 50.3734 37.481 51.9517C40.0992 54.6791 42.6886 57.3765 45.3194 60.1166C47.832 57.5587 50.2946 55.0486 52.7705 52.5248C54.4715 50.7909 56.1789 49.0505 57.9132 47.2838C61.7624 51.1053 65.4938 54.8076 69.1752 58.4603C71.2243 60.4934 73.2578 62.5111 75.2875 64.5253C78.3436 61.4385 81.3404 58.4138 84.3082 55.4185C86.7823 52.9214 89.2363 50.4447 91.6875 47.9693L88.689 44.9774C77.7442 34.0566 66.7487 23.0852 55.7725 12.1344ZM71.3701 34.5306C75.7523 39.0058 80.2175 43.5705 84.8155 48.2714V48.2747C82.7054 50.3007 80.5346 52.3873 78.3639 54.4739C77.3652 55.4339 76.3666 56.3938 75.3738 57.3479C73.1377 55.0981 70.8545 52.8021 68.567 50.5019C66.3955 48.3182 64.2201 46.1307 62.0779 43.9756C62.6366 43.4076 63.2006 42.8341 63.769 42.2563C66.2469 39.7371 68.8074 37.1338 71.3701 34.5306ZM14.2462 54.8466C12.0121 52.6232 9.68848 50.3107 7.39025 48.0258H7.39357L7.9123 47.5099C11.971 43.4734 16.0523 39.4146 20.0388 35.4535C20.9596 36.3754 21.8908 37.308 22.8255 38.2442C24.7385 40.1602 26.6664 42.0911 28.5509 43.9756C26.2711 46.2369 23.9363 48.5544 21.5864 50.8867C19.6999 52.7591 17.8038 54.6411 15.9189 56.5113C15.3683 55.9633 14.8101 55.4078 14.2462 54.8466ZM42.7289 37.6505C43.6069 36.7919 44.4886 35.9296 45.3692 35.0684H45.3725C46.9806 36.691 48.5936 38.3195 50.1977 39.9389C51.5441 41.2982 52.8843 42.6511 54.2099 43.9888C52.7877 45.4062 51.3457 46.8425 49.8987 48.2839C48.38 49.7966 46.8556 51.315 45.3426 52.8229C44.7335 52.1984 44.1202 51.5695 43.5036 50.9372C41.1997 48.5749 38.8489 46.1644 36.4919 43.7498C38.5026 41.7837 40.6048 39.7279 42.7289 37.6505Z" fill="#2EFDCB"/>
<circle id="Ellipse 1495" cx="46.6391" cy="8.86647" r="7.95143" fill="#2EFDCB"/>
</g>
</svg>
